<svg width="156" height="55" viewBox="0 0 156 55" fill="none" xmlns="http://www.w3.org/2000/svg">
<path d="M11.46 43.6C9.47333 43.6 7.74 43.1 6.26 42.1C4.78 41.1 3.63333 39.74 2.82 38.02C2.00667 36.3 1.6 34.36 1.6 32.2C1.6 30.0133 2.00667 28.0667 2.82 26.36C3.64667 24.64 4.81333 23.2867 6.32 22.3C7.82667 21.3 9.6 20.8 11.64 20.8C13.6933 20.8 15.4133 21.3 16.8 22.3C18.2 23.2867 19.26 24.64 19.98 26.36C20.7 28.08 21.06 30.0267 21.06 32.2C21.06 34.3467 20.7 36.2867 19.98 38.02C19.26 39.74 18.1867 41.1 16.76 42.1C15.3333 43.1 13.5667 43.6 11.46 43.6ZM12.2 39.28C13.4933 39.28 14.5333 38.9867 15.32 38.4C16.12 37.8 16.7 36.9667 17.06 35.9C17.4333 34.8333 17.62 33.6 17.62 32.2C17.62 30.7867 17.4333 29.5533 17.06 28.5C16.7 27.4333 16.1333 26.6067 15.36 26.02C14.5867 25.42 13.5867 25.12 12.36 25.12C11.0667 25.12 10 25.44 9.16 26.08C8.32 26.7067 7.7 27.56 7.3 28.64C6.9 29.7067 6.7 30.8933 6.7 32.2C6.7 33.52 6.89333 34.72 7.28 35.8C7.68 36.8667 8.28667 37.7133 9.1 38.34C9.91333 38.9667 10.9467 39.28 12.2 39.28ZM17.62 43V27.84H17.02V14.2H21.88V43H17.62ZM37.3075 43.6C35.1208 43.6 33.2008 43.1267 31.5475 42.18C29.8942 41.2333 28.6008 39.92 27.6675 38.24C26.7475 36.56 26.2875 34.6267 26.2875 32.44C26.2875 30.08 26.7408 28.0333 27.6475 26.3C28.5542 24.5533 29.8142 23.2 31.4275 22.24C33.0408 21.28 34.9075 20.8 37.0275 20.8C39.2675 20.8 41.1675 21.3267 42.7275 22.38C44.3008 23.42 45.4675 24.8933 46.2275 26.8C46.9875 28.7067 47.2742 30.9533 47.0875 33.54H42.3075V31.78C42.2942 29.4333 41.8808 27.72 41.0675 26.64C40.2542 25.56 38.9742 25.02 37.2275 25.02C35.2542 25.02 33.7875 25.6333 32.8275 26.86C31.8675 28.0733 31.3875 29.8533 31.3875 32.2C31.3875 34.3867 31.8675 36.08 32.8275 37.28C33.7875 38.48 35.1875 39.08 37.0275 39.08C38.2142 39.08 39.2342 38.82 40.0875 38.3C40.9542 37.7667 41.6208 37 42.0875 36L46.8475 37.44C46.0208 39.3867 44.7408 40.9 43.0075 41.98C41.2875 43.06 39.3875 43.6 37.3075 43.6ZM29.8675 33.54V29.9H44.7275V33.54H29.8675ZM51.95 43V13.6H56.77V43H51.95ZM75.4209 43C73.9943 43.2667 72.5943 43.38 71.2209 43.34C69.8609 43.3133 68.6409 43.0667 67.5609 42.6C66.4809 42.12 65.6609 41.3667 65.1009 40.34C64.6076 39.4067 64.3476 38.4533 64.3209 37.48C64.2943 36.5067 64.2809 35.4067 64.2809 34.18V15.4H69.0809V33.9C69.0809 34.7667 69.0876 35.5267 69.1009 36.18C69.1276 36.8333 69.2676 37.3667 69.5209 37.78C70.0009 38.58 70.7676 39.0267 71.8209 39.12C72.8743 39.2133 74.0743 39.16 75.4209 38.96V43ZM60.3609 25.18V21.4H75.4209V25.18H60.3609ZM112.897 43V38.06H117.837V43H112.897ZM130.285 43.6C128.725 43.6 127.405 43.3067 126.325 42.72C125.245 42.12 124.425 41.3267 123.865 40.34C123.319 39.3533 123.045 38.2667 123.045 37.08C123.045 36.04 123.219 35.1067 123.565 34.28C123.912 33.44 124.445 32.72 125.165 32.12C125.885 31.5067 126.819 31.0067 127.965 30.62C128.832 30.34 129.845 30.0867 131.005 29.86C132.179 29.6333 133.445 29.4267 134.805 29.24C136.179 29.04 137.612 28.8267 139.105 28.6L137.385 29.58C137.399 28.0867 137.065 26.9867 136.385 26.28C135.705 25.5733 134.559 25.22 132.945 25.22C131.972 25.22 131.032 25.4467 130.125 25.9C129.219 26.3533 128.585 27.1333 128.225 28.24L123.825 26.86C124.359 25.0333 125.372 23.5667 126.865 22.46C128.372 21.3533 130.399 20.8 132.945 20.8C134.865 20.8 136.552 21.1133 138.005 21.74C139.472 22.3667 140.559 23.3933 141.265 24.82C141.652 25.58 141.885 26.36 141.965 27.16C142.045 27.9467 142.085 28.8067 142.085 29.74V43H137.865V38.32L138.565 39.08C137.592 40.64 136.452 41.7867 135.145 42.52C133.852 43.24 132.232 43.6 130.285 43.6ZM131.245 39.76C132.339 39.76 133.272 39.5667 134.045 39.18C134.819 38.7933 135.432 38.32 135.885 37.76C136.352 37.2 136.665 36.6733 136.825 36.18C137.079 35.5667 137.219 34.8667 137.245 34.08C137.285 33.28 137.305 32.6333 137.305 32.14L138.785 32.58C137.332 32.8067 136.085 33.0067 135.045 33.18C134.005 33.3533 133.112 33.52 132.365 33.68C131.619 33.8267 130.959 33.9933 130.385 34.18C129.825 34.38 129.352 34.6133 128.965 34.88C128.579 35.1467 128.279 35.4533 128.065 35.8C127.865 36.1467 127.765 36.5533 127.765 37.02C127.765 37.5533 127.899 38.0267 128.165 38.44C128.432 38.84 128.819 39.16 129.325 39.4C129.845 39.64 130.485 39.76 131.245 39.76ZM147.692 18.12V13.7H152.512V18.12H147.692ZM147.692 43V21.4H152.512V43H147.692Z" fill="black"/>
<path d="M87.5576 15.5997C89.2393 11.9706 94.29 11.6872 96.3672 15.1054L108.722 35.4367C110.682 38.6624 108.498 42.8138 104.729 43.0253L82.3718 44.2798C78.6031 44.4913 75.9681 40.6103 77.5551 37.1855L87.5576 15.5997Z" fill="#7400E8"/>
</svg>
